<?xml version="1.0" standalone="no"?>
<!DOCTYPE svg PUBLIC "-//W3C//DTD SVG 20010904//EN"
 "http://www.w3.org/TR/2001/REC-SVG-20010904/DTD/svg10.dtd">
<svg version="1.0" xmlns="http://www.w3.org/2000/svg"
 width="512.000000pt" height="512.000000pt" viewBox="0 0 512.000000 512.000000"
 preserveAspectRatio="xMidYMid meet">
<metadata>
Created by potrace 1.14, written by Peter Selinger 2001-2017
</metadata>
<g transform="translate(0.000000,512.000000) scale(0.100000,-0.100000)"
fill="#000000" stroke="none">
<path d="M2095 4786 c-16 -7 -40 -24 -52 -37 -11 -13 -78 -161 -148 -329 -70
-168 -130 -309 -134 -313 -5 -4 -22 -10 -39 -12 -129 -16 -366 -73 -524 -126
-274 -91 -462 -212 -529 -340 -35 -67 -33 -168 5 -229 98 -157 345 -290 712
-385 142 -37 176 -44 372 -75 275 -43 438 -55 792 -55 307 0 446 7 665 35 44
5 100 12 125 15 25 3 52 7 60 10 8 2 35 7 60 10 93 13 319 69 445 110 275 90
446 194 530 321 49 74 56 154 21 231 -59 126 -229 243 -491 338 -80 29 -216
70 -263 80 -9 2 -48 10 -87 19 -38 9 -83 18 -100 21 -16 3 -43 8 -60 11 -16 3
-45 8 -64 12 l-35 8 -127 304 c-140 339 -161 372 -236 385 -24 4 -56 4 -73 0
-18 -4 -100 -62 -193 -136 -88 -71 -167 -127 -173 -125 -7 3 -80 59 -163 126
-175 141 -219 160 -296 126z"/>
<path d="M1053 2705 c-34 -16 -76 -65 -88 -103 -4 -13 -4 -45 0 -70 7 -45 17
-57 268 -309 256 -258 260 -263 227 -264 -133 -2 -288 -29 -425 -73 -123 -40
-321 -142 -355 -184 -53 -65 -50 -160 8 -215 17 -16 76 -43 162 -73 423 -147
851 -374 1155 -613 173 -136 268 -227 432 -417 45 -52 134 -69 196 -38 18 8
49 36 71 62 196 239 501 485 837 675 238 135 552 277 759 342 138 44 185 95
176 191 -6 70 -44 109 -172 176 -178 92 -380 149 -584 164 -47 3 -86 7 -87 8
-2 1 104 108 233 237 130 129 247 248 260 265 52 67 39 167 -28 217 -71 55
-66 56 -619 -128 -308 -102 -517 -177 -536 -192 -41 -30 -47 -41 -73 -139 -12
-43 -27 -99 -34 -124 -7 -25 -71 -258 -142 -517 -71 -260 -131 -473 -135 -473
-4 0 -20 52 -35 115 -2 9 -16 59 -48 178 -8 28 -38 135 -66 237 -28 102 -53
192 -55 200 -1 8 -13 49 -24 90 -36 127 -93 334 -98 357 -3 12 -19 38 -37 58
-29 34 -59 45 -526 201 -272 91 -515 167 -540 169 -27 3 -58 -1 -77 -10z"/>
</g>
</svg>
